{"glyphs":{":":{"x_min":0,"x_max":184,"ha":184,"o":"m 147 310 l 37 310 l 37 429 l 147 429 z m 147 0 l 37 0 l 37 118 l 147 118 z"},"$":{"x_min":0,"x_max":457,"ha":457,"o":"m 410 77 q 410 34 384 18 q 365 6 323 6 q 316 6 302 7 q 287 7 280 7 l 280 -61 l 173 -61 l 173 7 q 166 7 151 7 q 137 6 129 6 q 88 6 69 18 q 44 34 44 77 l 44 252 l 158 252 l 158 99 l 296 99 l 296 248 l 69 463 q 44 487 44 525 l 44 687 q 44 730 69 746 q 88 758 129 758 q 137 758 151 757 q 166 757 173 757 l 173 825 l 280 825 l 280 757 q 287 757 302 757 q 317 758 324 758 q 365 758 384 746 q 410 730 410 688 l 410 523 l 296 523 l 296 663 l 158 663 l 158 529 l 384 316 q 410 292 410 254 z"},"?":{"x_min":0,"x_max":424,"ha":424,"o":"m 389 536 q 389 499 369 472 l 258 322 l 258 178 l 147 178 l 147 308 q 147 347 167 374 l 277 523 l 277 669 l 148 669 l 148 530 l 36 530 l 36 694 q 36 764 106 764 l 319 764 q 389 764 389 694 z m 260 0 l 145 0 l 145 117 l 260 117 z"},"<":{"x_min":0,"x_max":364,"ha":364,"o":"m 322 99 l 316 99 l 32 301 l 32 359 l 322 561 l 322 443 l 154 330 l 322 217 z"},"'":{"x_min":0,"x_max":184,"ha":184,"o":"m 148 764 l 126 525 l 58 525 l 36 764 z"},"=":{"x_min":0,"x_max":467,"ha":467,"o":"m 428 375 l 39 375 l 39 469 l 428 469 z m 428 182 l 39 182 l 39 275 l 428 275 z"},"a":{"x_min":0,"x_max":398,"ha":398,"o":"m 358 0 l 251 0 l 251 17 q 213 11 175 5 q 125 -2 99 -2 q 38 -2 38 58 l 38 236 q 38 297 101 297 l 252 297 l 252 410 l 145 410 l 145 340 l 44 340 l 44 432 q 44 493 107 493 l 296 493 q 358 493 358 432 z m 252 89 l 252 221 l 145 221 l 145 85 z"},"L":{"x_min":0,"x_max":368,"ha":368,"o":"m 346 0 l 46 0 l 46 764 l 160 764 l 160 102 l 346 102 z"},"3":{"x_min":0,"x_max":460,"ha":460,"o":"m 417 70 q 417 0 348 0 l 114 0 q 46 0 46 70 l 46 246 l 158 246 l 158 98 l 305 98 l 305 290 l 165 386 l 165 410 l 305 505 l 305 666 l 158 666 l 158 527 l 46 527 l 46 694 q 46 764 115 764 l 348 764 q 417 764 417 694 l 417 514 q 417 469 379 444 l 308 398 l 380 353 q 417 330 417 284 z"},";":{"x_min":0,"x_max":184,"ha":184,"o":"m 147 310 l 37 310 l 37 429 l 147 429 z m 154 117 l 97 -79 l 23 -79 l 37 117 z"},"J":{"x_min":0,"x_max":434,"ha":434,"o":"m 389 70 q 389 0 319 0 l 102 0 q 33 0 33 70 l 33 258 l 147 258 l 147 98 l 275 98 l 275 764 l 389 764 z"},"V":{"x_min":0,"x_max":445,"ha":445,"o":"m 426 764 l 280 -1 l 166 -1 l 20 764 l 135 764 l 220 240 q 221 218 223 175 q 223 197 226 240 l 312 764 z"},"\"":{"x_min":0,"x_max":345,"ha":345,"o":"m 308 764 l 287 525 l 218 525 l 197 764 z m 148 764 l 126 525 l 58 525 l 36 764 z"},"7":{"x_min":0,"x_max":431,"ha":431,"o":"m 407 691 l 231 0 l 114 0 l 285 666 l 139 666 l 139 554 l 29 554 l 29 764 l 407 764 z"},"S":{"x_min":0,"x_max":457,"ha":457,"o":"m 412 70 q 412 0 343 0 l 113 0 q 44 0 44 70 l 44 252 l 158 252 l 158 96 l 298 96 l 298 246 l 69 463 q 44 487 44 524 l 44 694 q 44 764 113 764 l 343 764 q 412 764 412 695 l 412 524 l 298 524 l 298 668 l 158 668 l 158 530 l 387 314 q 412 291 412 252 z"},"}":{"x_min":0,"x_max":371,"ha":371,"o":"m 345 328 l 249 234 l 249 0 q 249 -121 132 -121 l 35 -121 l 35 -20 q 41 -20 55 -21 q 70 -21 78 -21 q 137 -21 137 21 l 137 223 q 137 250 142 263 q 147 275 167 292 l 220 337 l 167 381 q 147 397 142 412 q 137 423 137 451 l 137 624 q 137 665 79 665 q 71 665 56 664 q 41 663 35 663 l 35 764 l 132 764 q 249 764 249 643 l 249 440 l 345 346 z"},"Z":{"x_min":0,"x_max":390,"ha":390,"o":"m 370 0 l 19 0 l 19 61 l 233 661 l 36 661 l 36 764 l 369 764 l 369 698 l 156 103 l 370 103 z"},"x":{"x_min":0,"x_max":380,"ha":380,"o":"m 370 0 l 249 0 l 190 155 l 129 0 l 10 0 l 10 2 l 129 254 l 21 493 l 136 493 l 190 350 l 246 493 l 359 493 l 359 491 l 251 255 z"},")":{"x_min":0,"x_max":304,"ha":304,"o":"m 264 333 q 264 100 139 -98 l 26 -98 l 26 -93 q 142 108 142 333 q 142 558 26 759 l 26 764 l 139 764 q 264 566 264 333 z"},"&":{"x_min":0,"x_max":488,"ha":488,"o":"m 466 349 l 412 349 l 412 0 l 113 0 q 44 0 44 69 l 44 302 q 44 339 68 360 q 97 380 126 399 q 98 417 70 437 q 46 458 46 493 l 46 695 q 46 764 115 764 l 347 764 q 416 764 416 695 l 416 536 l 304 536 l 304 668 l 159 668 l 159 483 l 211 447 l 466 447 z m 301 96 l 301 349 l 208 349 l 156 312 l 156 96 z"},"_":{"x_min":0,"x_max":395,"ha":395,"o":"m 396 -200 l 0 -200 l 0 -115 l 396 -115 z"},"v":{"x_min":0,"x_max":389,"ha":389,"o":"m 374 493 l 248 -1 l 141 -1 l 15 493 l 130 493 l 195 169 l 260 493 z"},"O":{"x_min":0,"x_max":477,"ha":477,"o":"m 431 70 q 431 0 362 0 l 114 0 q 46 0 46 70 l 46 694 q 46 764 114 764 l 362 764 q 431 764 431 694 z m 317 98 l 317 666 l 160 666 l 160 98 z"},"(":{"x_min":0,"x_max":304,"ha":304,"o":"m 279 -98 l 166 -98 q 41 100 41 333 q 41 566 166 764 l 279 764 l 279 759 q 163 558 163 333 q 163 108 279 -93 z"},"C":{"x_min":0,"x_max":466,"ha":466,"o":"m 422 70 q 422 0 352 0 l 114 0 q 46 0 46 70 l 46 694 q 46 764 114 764 l 352 764 q 422 764 422 694 l 422 515 l 308 515 l 308 666 l 160 666 l 160 98 l 308 98 l 308 259 l 422 259 z"},"W":{"x_min":0,"x_max":628,"ha":628,"o":"m 610 764 l 498 -1 l 386 -1 l 318 432 q 317 456 314 502 q 314 479 310 432 l 242 -1 l 130 -1 l 18 764 l 134 764 l 193 311 q 194 288 197 241 q 197 265 201 311 l 267 764 l 361 764 l 427 311 q 428 288 431 241 q 432 265 435 311 l 494 764 z"},"A":{"x_min":0,"x_max":451,"ha":451,"o":"m 433 0 l 320 0 l 297 145 l 154 145 l 131 0 l 18 0 l 18 2 l 166 765 l 286 765 z m 281 243 l 225 588 l 169 243 z"},"f":{"x_min":0,"x_max":258,"ha":258,"o":"m 257 667 l 175 667 l 175 493 l 246 493 l 246 398 l 175 398 l 175 0 l 64 0 l 64 398 l 13 398 l 13 493 l 64 493 l 64 703 q 64 764 126 764 l 257 764 z"},"Q":{"x_min":0,"x_max":492,"ha":492,"o":"m 483 -1 l 475 -1 l 424 38 q 410 0 362 0 l 114 0 q 46 0 46 70 l 46 694 q 46 764 115 764 l 362 764 q 431 764 431 694 l 431 141 l 483 104 z m 317 98 l 317 125 l 250 176 l 250 280 l 257 280 l 317 235 l 317 666 l 160 666 l 160 98 z"},"w":{"x_min":0,"x_max":543,"ha":543,"o":"m 528 493 l 422 -1 l 324 -1 l 271 272 l 218 -1 l 121 -1 l 15 493 l 122 493 l 176 178 l 229 493 l 314 493 l 367 178 l 421 493 z"},"-":{"x_min":0,"x_max":308,"ha":308,"o":"m 270 243 l 37 243 l 37 345 l 270 345 z"},"E":{"x_min":0,"x_max":395,"ha":395,"o":"m 363 0 l 46 0 l 46 764 l 360 764 l 360 663 l 160 663 l 160 440 l 332 440 l 332 341 l 160 341 l 160 101 l 363 101 z"},"s":{"x_min":0,"x_max":388,"ha":388,"o":"m 350 61 q 350 0 288 0 l 100 0 q 38 0 38 61 l 38 167 l 145 167 l 145 84 l 243 84 l 243 162 l 72 263 q 38 283 38 317 l 38 432 q 38 493 101 493 l 287 493 q 349 493 349 432 l 349 333 l 243 333 l 243 409 l 145 409 l 145 338 l 316 238 q 350 218 350 183 z"},">":{"x_min":0,"x_max":364,"ha":364,"o":"m 333 301 l 49 99 l 42 99 l 42 217 l 211 330 l 42 443 l 42 561 l 49 561 l 333 359 z"},"l":{"x_min":0,"x_max":196,"ha":196,"o":"m 153 0 l 43 0 l 43 764 l 153 764 z"},"8":{"x_min":0,"x_max":469,"ha":469,"o":"m 423 70 q 423 0 354 0 l 113 0 q 45 0 45 70 l 45 292 q 45 334 73 357 q 107 376 141 396 q 108 415 76 434 q 46 458 46 497 l 46 694 q 46 764 115 764 l 353 764 q 421 764 421 694 l 421 497 q 421 457 392 434 q 359 415 326 396 q 360 376 394 357 q 423 334 423 292 z m 308 485 l 308 668 l 160 668 l 160 485 l 234 441 z m 309 96 l 309 308 l 234 351 l 158 308 l 158 96 z"},"\\":{"x_min":0,"x_max":444,"ha":444,"o":"m 425 0 l 321 0 l 19 764 l 123 764 z"},"e":{"x_min":0,"x_max":400,"ha":400,"o":"m 359 61 q 359 0 296 0 l 103 0 q 40 0 40 61 l 40 432 q 40 493 103 493 l 296 493 q 359 493 359 432 l 359 251 l 328 220 l 147 220 l 147 82 l 252 82 l 252 164 l 359 164 z m 252 293 l 252 411 l 147 411 l 147 293 z"},"b":{"x_min":0,"x_max":409,"ha":409,"o":"m 369 99 q 369 53 341 26 q 313 0 267 0 l 40 0 l 40 764 l 152 764 l 152 475 q 191 481 230 487 q 279 495 308 495 q 369 495 369 435 z m 257 130 l 257 400 l 152 398 l 152 93 l 221 93 q 257 93 257 130 z"},"%":{"x_min":0,"x_max":656,"ha":656,"o":"m 565 750 l 155 0 l 89 0 l 89 14 l 500 764 l 565 764 z m 632 59 q 632 0 573 0 l 441 0 q 382 0 382 59 l 382 330 q 382 389 441 389 l 573 389 q 632 389 632 330 z m 550 71 l 550 317 l 463 317 l 463 71 z m 271 435 q 271 375 212 375 l 80 375 q 21 375 21 435 l 21 705 q 21 764 80 764 l 212 764 q 271 764 271 705 z m 189 447 l 189 693 l 102 693 l 102 447 z"},"m":{"x_min":0,"x_max":624,"ha":624,"o":"m 584 0 l 473 0 l 473 400 l 368 398 l 368 0 l 257 0 l 257 400 l 152 398 l 152 0 l 40 0 l 40 493 l 152 493 l 152 475 q 191 481 229 488 q 277 495 308 495 q 347 495 358 473 q 399 479 440 486 q 494 495 523 495 q 584 495 584 435 z"},"#":{"x_min":0,"x_max":542,"ha":542,"o":"m 520 478 l 428 478 l 397 284 l 485 284 l 485 191 l 382 191 l 351 0 l 250 0 l 281 191 l 200 191 l 170 0 l 68 0 l 99 191 l 23 191 l 23 284 l 114 284 l 145 478 l 58 478 l 58 571 l 160 571 l 191 764 l 292 764 l 261 571 l 342 571 l 373 764 l 475 764 l 443 571 l 520 571 z m 327 478 l 246 478 l 215 284 l 296 284 z"},",":{"x_min":0,"x_max":184,"ha":184,"o":"m 158 117 l 101 -79 l 27 -79 l 41 117 z"},"n":{"x_min":0,"x_max":409,"ha":409,"o":"m 369 0 l 257 0 l 257 400 l 152 398 l 152 0 l 40 0 l 40 493 l 152 493 l 152 475 q 191 481 229 487 q 277 495 308 495 q 369 495 369 435 z"},"h":{"x_min":0,"x_max":409,"ha":409,"o":"m 369 0 l 257 0 l 257 400 l 152 398 l 152 0 l 40 0 l 40 764 l 152 764 l 152 475 q 191 481 230 487 q 279 495 308 495 q 369 495 369 435 z"},"z":{"x_min":0,"x_max":347,"ha":347,"o":"m 319 0 l 22 0 l 22 66 l 186 402 l 35 402 l 35 493 l 319 493 l 319 427 l 154 91 l 319 91 z"},"B":{"x_min":0,"x_max":465,"ha":465,"o":"m 421 70 q 421 0 351 0 l 46 0 l 46 764 l 349 764 q 417 764 417 694 l 417 497 q 417 458 393 437 q 389 434 333 399 q 391 363 395 360 q 421 337 421 297 z m 303 483 l 303 668 l 160 668 l 160 444 l 248 444 z m 306 96 l 306 314 l 250 351 l 160 351 l 160 96 z"},"K":{"x_min":0,"x_max":431,"ha":431,"o":"m 431 0 l 305 0 l 160 341 l 160 0 l 46 0 l 46 764 l 160 764 l 160 441 l 287 764 l 412 764 l 412 759 l 257 396 z"},"R":{"x_min":0,"x_max":461,"ha":461,"o":"m 437 0 l 318 0 l 192 355 q 192 355 192 424 l 304 424 l 304 666 l 160 666 l 160 0 l 46 0 l 46 764 l 349 764 q 418 764 418 694 l 418 416 q 418 368 385 354 q 368 346 311 346 z"},"T":{"x_min":0,"x_max":390,"ha":390,"o":"m 378 663 l 252 663 l 252 0 l 138 0 l 138 663 l 12 663 l 12 764 l 378 764 z"},"P":{"x_min":0,"x_max":450,"ha":450,"o":"m 415 348 q 415 277 345 277 l 160 277 l 160 0 l 46 0 l 46 764 l 345 764 q 415 764 415 694 z m 300 375 l 300 666 l 160 666 l 160 375 z"},"|":{"x_min":0,"x_max":210,"ha":210,"o":"m 160 -176 l 50 -176 l 50 764 l 160 764 z"},"t":{"x_min":0,"x_max":275,"ha":275,"o":"m 253 0 l 129 0 q 67 0 67 61 l 67 398 l 14 398 l 14 493 l 67 493 l 67 627 l 178 627 l 178 493 l 250 493 l 250 398 l 178 398 l 178 95 l 253 95 z"},"M":{"x_min":0,"x_max":553,"ha":553,"o":"m 508 0 l 398 0 l 398 377 q 398 407 405 460 l 306 70 l 248 70 l 149 460 q 156 406 156 377 l 156 0 l 46 0 l 46 764 l 154 764 l 274 342 q 276 335 277 307 q 277 319 280 342 l 400 764 l 508 764 z"},"g":{"x_min":0,"x_max":408,"ha":408,"o":"m 367 -119 q 367 -180 304 -180 l 110 -180 q 47 -180 47 -119 l 47 -40 l 155 -40 l 155 -99 l 256 -99 l 256 3 l 141 3 q 94 3 67 29 q 39 56 39 102 l 39 404 q 39 446 63 471 q 87 495 129 495 q 150 495 256 475 l 256 493 l 367 493 z m 256 93 l 256 396 q 200 402 186 402 q 150 402 150 366 l 150 130 q 150 93 187 93 z"},"j":{"x_min":0,"x_max":196,"ha":196,"o":"m 154 564 l 42 564 l 42 679 l 154 679 z m 153 -119 q 153 -180 91 -180 l -28 -180 l -28 -87 l 43 -87 l 43 493 l 153 493 z"},"i":{"x_min":0,"x_max":196,"ha":196,"o":"m 154 564 l 42 564 l 42 679 l 154 679 z m 153 0 l 43 0 l 43 493 l 153 493 z"},"y":{"x_min":0,"x_max":389,"ha":389,"o":"m 374 493 l 250 6 l 203 -180 l 89 -180 l 140 4 l 15 493 l 130 493 l 195 169 l 260 493 z"},"@":{"x_min":0,"x_max":583,"ha":583,"o":"m 538 0 l 89 0 q 45 0 45 44 l 45 720 q 45 764 89 764 l 494 764 q 538 764 538 720 l 538 211 q 538 167 494 167 l 222 167 q 178 167 178 210 l 178 381 q 178 425 222 425 l 322 425 l 322 534 l 259 534 l 259 466 l 183 466 l 183 557 q 183 601 226 601 l 357 601 q 401 601 401 557 l 401 219 l 486 219 l 486 714 l 97 714 l 97 50 l 538 50 z m 322 231 l 322 362 l 257 362 l 257 231 z"},".":{"x_min":0,"x_max":184,"ha":184,"o":"m 147 0 l 37 0 l 37 118 l 147 118 z"},"p":{"x_min":0,"x_max":408,"ha":408,"o":"m 369 99 q 369 39 326 15 q 295 -2 231 -2 q 217 -2 190 -1 q 164 0 152 0 l 152 -180 l 40 -180 l 40 493 l 152 493 l 152 475 q 191 481 230 487 q 279 495 308 495 q 369 495 369 435 z m 257 130 l 257 400 l 152 398 l 152 93 l 221 93 q 257 93 257 130 z"},"X":{"x_min":0,"x_max":440,"ha":440,"o":"m 427 0 l 303 0 l 219 269 l 135 0 l 13 0 l 13 4 l 156 391 q 21 762 22 764 l 144 764 l 220 515 l 297 764 l 418 764 l 418 760 l 284 394 z"},"*":{"x_min":0,"x_max":458,"ha":458,"o":"m 421 530 l 368 445 l 269 518 l 278 391 l 179 391 l 190 518 l 90 445 l 38 530 l 156 581 l 38 633 l 90 718 l 190 646 l 179 772 l 278 772 l 269 646 l 368 718 l 421 633 l 303 581 z"},"Y":{"x_min":0,"x_max":443,"ha":443,"o":"m 430 760 l 329 440 q 311 393 279 281 l 279 0 l 164 0 l 164 281 q 156 319 142 361 q 116 434 114 440 l 13 760 q 13 760 13 764 l 131 764 l 222 432 l 313 764 l 430 764 q 430 761 430 760 z"},"c":{"x_min":0,"x_max":399,"ha":399,"o":"m 359 61 q 359 0 297 0 l 103 0 q 40 0 40 61 l 40 432 q 40 493 103 493 l 297 493 q 359 493 359 432 l 359 315 l 250 315 l 250 400 l 150 400 l 150 93 l 250 93 l 250 187 l 359 187 z"},"!":{"x_min":0,"x_max":214,"ha":214,"o":"m 168 764 l 152 178 l 62 178 l 46 764 z m 163 0 l 50 0 l 50 117 l 163 117 z"},"/":{"x_min":0,"x_max":444,"ha":444,"o":"m 425 757 l 123 0 l 19 0 l 19 7 l 321 764 l 425 764 z"},"[":{"x_min":0,"x_max":294,"ha":294,"o":"m 259 -121 l 113 -121 q 46 -121 46 -54 l 46 698 q 46 764 113 764 l 259 764 l 259 662 l 158 662 l 158 -19 l 259 -19 z"},"6":{"x_min":0,"x_max":461,"ha":461,"o":"m 416 70 q 416 0 347 0 l 115 0 q 46 0 46 70 l 46 694 q 46 764 114 764 l 345 764 q 414 764 414 694 l 414 532 l 302 532 l 302 666 l 158 666 l 158 436 l 347 436 q 416 436 416 367 z m 304 98 l 304 339 l 158 339 l 158 98 z"},"r":{"x_min":0,"x_max":374,"ha":374,"o":"m 351 287 l 240 287 l 240 400 l 152 398 l 152 0 l 40 0 l 40 493 l 152 493 l 152 475 q 187 481 221 488 q 262 495 290 495 q 351 495 351 435 z"},"2":{"x_min":0,"x_max":441,"ha":441,"o":"m 405 547 q 405 511 380 467 l 170 100 l 404 100 l 404 0 l 33 0 l 33 71 l 292 526 l 292 667 l 153 667 l 153 525 l 41 525 l 41 695 q 41 764 111 764 l 335 764 q 405 764 405 695 z"},"{":{"x_min":0,"x_max":371,"ha":371,"o":"m 336 -121 l 239 -121 q 122 -121 122 0 l 122 234 l 26 328 l 26 346 l 122 440 l 122 643 q 122 764 239 764 l 336 764 l 336 663 q 330 663 315 664 q 300 665 292 665 q 235 665 235 624 l 235 451 q 235 423 229 411 q 224 398 204 381 l 151 337 l 204 292 q 224 275 230 261 q 235 250 235 223 l 235 21 q 235 -21 293 -21 q 301 -21 315 -21 q 330 -20 336 -20 z"},"9":{"x_min":0,"x_max":461,"ha":461,"o":"m 415 70 q 415 0 346 0 l 116 0 q 47 0 47 70 l 47 232 l 159 232 l 159 98 l 302 98 l 302 328 l 112 328 q 44 328 44 397 l 44 694 q 44 764 112 764 l 345 764 q 415 764 415 694 z m 302 425 l 302 666 l 156 666 l 156 425 z"}," ":{"x_min":0,"x_max":206,"ha":206,"o":""},"I":{"x_min":0,"x_max":210,"ha":210,"o":"m 162 0 l 48 0 l 48 764 l 162 764 z"},"H":{"x_min":0,"x_max":475,"ha":475,"o":"m 430 0 l 315 0 l 315 343 l 160 343 l 160 0 l 46 0 l 46 764 l 160 764 l 160 449 l 315 449 l 315 764 l 430 764 z"},"4":{"x_min":0,"x_max":455,"ha":455,"o":"m 435 144 l 377 144 l 377 0 l 268 0 l 268 144 l 17 144 l 17 212 l 207 764 l 323 764 q 323 761 323 760 l 145 241 l 268 241 l 268 471 l 377 471 l 377 241 l 435 241 z"},"~":{"x_min":0,"x_max":506,"ha":506,"o":"m 443 266 q 443 206 386 206 q 359 206 322 221 l 160 286 l 160 209 l 63 209 l 63 331 q 63 390 120 390 q 146 390 183 375 l 345 310 l 345 387 l 443 387 z"},"D":{"x_min":0,"x_max":469,"ha":469,"o":"m 427 144 q 427 77 387 38 q 347 0 279 0 l 46 0 l 46 764 l 279 764 q 347 764 387 725 q 427 687 427 619 z m 312 163 l 312 602 q 312 666 245 666 l 160 666 l 160 98 l 242 98 q 312 98 312 163 z"},"^":{"x_min":0,"x_max":417,"ha":417,"o":"m 379 494 l 289 494 l 208 646 l 127 494 l 38 494 l 38 500 l 160 764 l 259 764 z"},"0":{"x_min":0,"x_max":467,"ha":467,"o":"m 421 70 q 421 0 352 0 l 114 0 q 46 0 46 70 l 46 694 q 46 764 115 764 l 352 764 q 421 764 421 694 z m 309 98 l 309 666 l 158 666 l 158 98 z"},"F":{"x_min":0,"x_max":377,"ha":377,"o":"m 358 663 l 160 663 l 160 437 l 329 437 l 329 338 l 160 338 l 160 0 l 46 0 l 46 764 l 358 764 z"},"`":{"x_min":0,"x_max":408,"ha":408,"o":"m 337 526 l 255 526 l 113 655 l 113 659 l 252 659 l 337 530 z"},"k":{"x_min":0,"x_max":377,"ha":377,"o":"m 369 0 l 250 0 l 152 226 l 152 0 l 40 0 l 40 764 l 152 764 l 152 305 l 240 493 l 357 493 l 357 491 l 243 267 z"},"u":{"x_min":0,"x_max":409,"ha":409,"o":"m 368 0 l 257 0 l 257 17 q 218 11 179 4 q 132 -3 101 -3 q 40 -3 40 58 l 40 493 l 151 493 l 151 93 l 257 95 l 257 493 l 368 493 z"},"]":{"x_min":0,"x_max":294,"ha":294,"o":"m 249 -54 q 249 -121 182 -121 l 35 -121 l 35 -19 l 137 -19 l 137 662 l 35 662 l 35 764 l 182 764 q 249 764 249 698 z"},"U":{"x_min":0,"x_max":474,"ha":474,"o":"m 428 70 q 428 0 358 0 l 115 0 q 46 0 46 70 l 46 764 l 160 764 l 160 98 l 314 98 l 314 764 l 428 764 z"},"o":{"x_min":0,"x_max":406,"ha":406,"o":"m 365 61 q 365 0 303 0 l 103 0 q 40 0 40 61 l 40 432 q 40 493 103 493 l 303 493 q 365 493 365 432 z m 256 93 l 256 400 l 150 400 l 150 93 z"},"N":{"x_min":0,"x_max":479,"ha":479,"o":"m 433 0 l 333 0 l 150 481 q 157 446 157 426 l 157 0 l 46 0 l 46 764 l 146 764 l 329 293 q 322 328 322 348 l 322 764 l 433 764 z"},"+":{"x_min":0,"x_max":474,"ha":474,"o":"m 438 287 l 289 287 l 289 141 l 185 141 l 185 287 l 36 287 l 36 382 l 185 382 l 185 528 l 289 528 l 289 382 l 438 382 z"},"G":{"x_min":0,"x_max":469,"ha":469,"o":"m 424 70 q 424 0 354 0 l 114 0 q 46 0 46 70 l 46 694 q 46 764 115 764 l 354 764 q 424 764 424 694 l 424 531 l 309 531 l 309 666 l 160 666 l 160 98 l 309 98 l 309 312 l 224 312 l 224 409 l 424 409 z"},"q":{"x_min":0,"x_max":408,"ha":408,"o":"m 367 -180 l 256 -180 l 256 0 l 141 0 q 94 0 67 26 q 39 53 39 99 l 39 404 q 39 446 63 471 q 87 495 129 495 q 150 495 256 475 l 256 493 l 367 493 z m 256 93 l 256 396 q 195 402 185 402 q 150 402 150 366 l 150 130 q 150 93 186 93 z"},"d":{"x_min":0,"x_max":408,"ha":408,"o":"m 367 0 l 256 0 l 256 17 q 143 -3 129 -3 q 87 -3 63 22 q 39 46 39 89 l 39 394 q 39 454 82 478 q 113 495 177 495 q 191 495 218 494 q 245 493 256 493 l 256 764 l 367 764 z m 256 96 l 256 400 l 187 400 q 150 400 150 363 l 150 127 q 150 91 185 91 q 193 91 256 96 z"},"1":{"x_min":0,"x_max":235,"ha":235,"o":"m 184 0 l 72 0 l 72 539 l 28 539 l 28 554 l 87 764 l 184 764 z"},"5":{"x_min":0,"x_max":454,"ha":454,"o":"m 411 70 q 411 0 342 0 l 113 0 q 45 0 45 70 l 45 246 l 157 246 l 157 98 l 299 98 l 299 392 l 45 392 l 57 764 l 406 764 l 406 664 l 163 664 l 156 490 l 342 490 q 411 490 411 421 z"}}}
